<svg id="Ebene_1" data-name="Ebene 1" xmlns="http://www.w3.org/2000/svg" viewBox="0 0 1273.49 1234.59"><defs><style>.cls-1{fill:#0f100f;}.cls-2{fill:#aaeffe;}.cls-3{fill:#e2e2e2;}.cls-4{fill:#7ecf7d;}.cls-5{fill:#f0f0f0;}.cls-6{fill:#fdd9c2;}.cls-7{fill:#bf8788;}.cls-8{fill:#7fc0fd;}.cls-9{fill:#fff;}.cls-10{fill:#7d4545;}</style></defs><path class="cls-1" d="M27.82,1168c3.46-1.29,6.91-3.62,10.4-3.69,17.17-.39,34.35-.18,55.13-.18-31.59-12.6-32.21-38.77-35.33-63-4.6-35.84-9.54-71.74-11.53-107.77-1.66-29.88,1.33-31.54,29.44-38.75a20.4,20.4,0,0,0-1.38-3.44C35.19,889.53,18.65,820.28,7.22,749.44,1.15,711.83,10,676.1,24.28,641.51c1.57-3.8,5.13-6.78,7.77-10.14.16,2.78,1.3,6,.36,8.3C11.58,691.14,8.93,743,24,796.86c13.66,48.76,25.33,97.67,51.81,141.92,9.27,15.49,19.62,16.54,31,14.72-6.57-39.59-16-78.27-18.71-117.43-3.36-48.63-1.07-97.65-1.52-146.5,0-4.08-1.11-9.27-3.73-12-14.28-15-29.23-29.29-43.83-43.95-1.29-1.29-1.73-3.43-2.56-5.18,6.77,2,15.17,2.09,20,6.3C68.88,645.51,79.66,658.12,90.09,669c8.29-21.29,16.69-44.2,26.26-66.61,3-6.93,9.11-12.51,13.81-18.7.91-1.2,2.47-2.26,2.71-3.57,9.87-53.51,35-100.4,63.69-145.6C236.74,371.29,287,318,352.06,279.84c7.89-4.63,17.5-6.32,26.32-9.37-1.75,2.46-2.94,6-5.32,7.24C305.88,313.88,253.66,365.83,211,428.52c-29.09,42.71-50.51,89-68,137.25-1.74,4.82-1.65,15,.32,15.74,20.3,8.08,27.08,26,33.05,44,7.81,23.51,14,47.58,20.93,71.63,8.07-6.64,16-13.61,24.45-20,14.53-11.08,20.13-9.48,27.33,7.4,1.43,3.34,3,6.93,3.15,10.45,1,28.1,3.93,56.39,1.74,84.27a1125.19,1125.19,0,0,1-16.18,120.29c-3.71,19.62-14.14,38-21.61,57.11,10.21,4,28.54-.22,23.93,22,36.91,0,72.86.09,108.8-.07,8.19,0,12.53,2.2,11.2,11.54a307.47,307.47,0,0,0-2.83,31.77c-.47,12.89-.11,25.81-.11,38.72,16.08-23.81,38.43-28.75,63.81-26.63l50.05,5.43h6c0-.39.07-.79.1-1.18l-6.52-1.62L421,1032.06c-11.77-1.2-19.92-5.58-19.41-19.49.21-5.88-1.41-11.87-2.61-17.73-.3-1.43-2-3-3.46-3.67-4.12-2.07-9.74-2.6-12.47-5.74-35.1-40.27-40.49-87.49-30.11-137.62,5.67-27.37,25.67-50.18,24.46-80.52-.32-7.82,10.94-19.4,19.59-23.38,9.39-4.32,17.06-6.55,24.06-16.32,27.32-38.16,65.18-62.35,112.37-74.61-4.37-2.42-7.14-4-10-5.49-37.34-19.71-67.73-45.76-81.37-87.57-4.94-15.15-10.45-30.12-16.27-44.94-.9-2.28-4.71-4.33-7.46-4.81-14.67-2.55-30.61-5.06-37.43-19.49-10.15-21.47-20.11-43.73-25.19-66.75-7.19-32.56,11.2-52.94,39.82-50.89-2.43-33.48-4.87-67.18-7.3-100.87,3.08-37.85,18.79-71.36,44.6-95.07L390,148.28c-10.09-6.77-21.1-15.85-15.42-27.9,3.78-8,16.43-16,25.46-16.43,16.81-.8,33.89,3.93,50.92,6.37.14-11.57-21-31.55,6.17-40.76,23.59-8,22.7,19,31.65,25.79,11.18-8.58,21.48-18,33.18-25.19C589.17,29.08,663,32.49,734.79,47.83,794,60.48,850.27,86,886.58,139.66c6.14,9.09,8.29,21.1,11,32.07.51,2.07-5,8.07-7.68,8.07-9.54,0-19.08-1.83-28.63-3l-3.66-.12.93,2.43c9.38,26.41,19.09,52.71,27.88,79.31,2.1,6.38,3.27,10.46,11.09,12.33,9.84,2.37,20.16,6.28,28.13,12.35,33.23,25.31,70.16,47.68,97.55,78.42,84.75,95.13,136.48,205.39,137.3,335.77.38,60.27,1.47,120.31-15.65,179.24-11.67,40.14-34.44,73.85-56.14,108.45-1.81,2.89-2.41,6.54-3.58,9.84,2.74-1.68,5.92-2.92,8.14-5.13,14.54-14.54,28.89-29.27,43.27-44,9.6-9.82,17.89-8.92,19.14,4.3,2.56,26.89,1.61,54.1,2.51,81.17a33.29,33.29,0,0,0,3.76,14.21c5.15,9.53,11.33,18.51,16.92,27.81,7.76,12.91,15.21,26,23.26,38.72.91,1.44,5.22,2,7.31,1.21,26.47-9.83,45.9,2.52,63.11,20.34,9.69,10,7.62,22-3.29,29.66-1.3.91-.71,4.52-1,6.87-4.55,1.26-9.1,3.62-13.66,3.63q-434.13.25-868.28.15-172.92,0-345.85-.24C36.25,1173.58,32,1169.93,27.82,1168Zm946.4-157.58,28.06-10.23,8.55-4.39-42.09-34.93c-1.93,20.2-3.7,38.64-5.52,57.65Zm136.08-6.8,23.76,14.58,14.47,12.14V950.57l-46.77,51.3-5-3.85ZM74.45,983.82c42.23,1.47,84.5,2.19,126.66,4.82,16.09,1,27.07-.95,28.69-22.11-39.54-1.44-79.3-3.24-119.07-4.13-12.19-.27-24.43,1.92-36.65,3-19.14,1.2-22.18,4.61-18.3,20Zm779.81-479.7c37.25-11,50.9-41.4,59.83-74.62,4.26-15.86,4.35-32.55-10.28-44.92-10.37-8.76-24-5.19-29.44,6.63-5.25,11.42-12,22.18-18,33.26-1.55,2.86-4.14,5.87-4.09,8.77.41,23.72,1.33,47.42,2.1,71.13l-1.43-.13c0,.31,0,.62,0,.92ZM225.82,1030.2c0-.51,0-1-.08-1.51l-1.27,1.23c-18.18,1.27-36.36,3.62-54.53,3.56-29.82-.11-59.63-1.79-89.45-2.8-5.3,0-10.89-1-15.82.35-3,.83-7.51,5.65-7.15,8.06,4.69,31.49,9.35,63,16,94.17,1.52,7.15,9.28,16.22,16.06,18.33,13.61,4.26,28.53,4.33,42.91,6.12,14,0,28-.21,41.92-.08,18,.18,29.38-8.18,36.86-24.77C226.11,1099.87,226.84,1065.24,225.82,1030.2Zm818,126c9.62.14,19.25.48,28.87.4,36.13-.32,72.27-.33,108.37-1.63,5.66-.21,15.79-6.47,15.79-10,0-11.08-2-23-6.55-33-4.4-9.82-12.83-17.84-19.63-26.82-15.79,9.65-24.88,9.11-37.29-3.84-2.17-2.26-2.73-6.07-4-9.17,3,.87,6.15,1.36,8.88,2.72s4.88,5.14,7.17,5.05a77.43,77.43,0,0,0,20.55-3.67c.77-.26.14-9.26-2-12.94-3.62-6.22-8.93-11.48-13.62-17-26.72-31.78-62.35-44.66-102.38-48.13-43.22-2.88-104.45,41.33-116.42,84.05,51.3,9,79.37,37.54,71.46,74ZM236.91,987.42l1.47,5.63-.43,0h.43c.48,10,1.39,19.91,1.37,29.87-.1,36.28-.64,72.55-.74,108.83,0,18.62,6.47,26.12,25.18,25.52,18.15-.59,36.36-3,54.29-6.08,27.58-4.76,29.78-8.11,30.41-37,0-.67,0-1.33,0-2,.5-39.23,1.15-78.45,1.15-117.68,0-2.27-5.09-6.45-7.91-6.53-32.93-1-65.87-1.44-98.81-2v-.47l-.07.46-5.76-.46-3.67-2.34-1.13,3.24ZM854,1028.23c4.11-21.88,11.08-43.67,11.78-65.66,2-61.32,6.92-122.16,17.37-182.63,1.32-7.64-2.93-16.23-4.6-24.38-4.74-.95-9.48-2.7-14.24-2.72-15.58-.1-31.18.92-46.76.64-54.36-1-108.72-2.32-163.08-3.53l-16.23.31c-18.62-.47-37.26-1.55-55.87-1.29-52.76.73-105.51,2.12-158.27,2.93-5.71.09-11.54-3.11-17.16-2.7-15,1.09-24.63,12.61-22.79,30.37,7.9,76.06,16.91,152,25,228.06,1.21,11.37,4,17.28,17,15.63,7.75-1,16.08.14,23.81,1.84,44.38,9.79,88.83,19.34,132.9,30.43,20.82,5.24,40.9,8.26,61.5.6,6.48-1.34,12.95-2.74,19.45-4,35.5-6.83,70.8-15.25,106.59-19.91,26.83-3.5,54.29-2.16,81.48-3l2.27.39C854.07,1029.17,854,1028.7,854,1028.23Zm-19-864.6c3.31-1.25,7.05-4.19,9.86-3.48,12.11,3.06,23.93,7.22,35.88,10.92,6.93,2.15,10.87-1.38,7.34-7.2-9.12-15-17.69-31.22-30-43.35-43.23-42.59-98.2-62.79-156.75-69.22-38.14-4.19-77.67-1.19-116,3.53-21.24,2.62-41.27,15.31-61.76,23.65-14.5,5.9-24.84,15.22-25.78,32.25-.14,2.46-2.67,4.79-4.09,7.17-2.11-1.8-4.88-3.21-6.2-5.47-5.71-9.75-10.38-20.17-16.79-29.41-2.13-3.08-9.59-5.75-12.3-4.29-3.08,1.65-5.78,8.71-4.8,12.4,2.87,10.86,7.82,21.15,11.55,31.81,1.06,3,.71,6.55,1,9.85-3.13-1.08-6.63-1.6-9.34-3.33-18.14-11.63-36.44-23.23-59.33-16.87-5.74,1.59-13.78,6.23-14.69,10.71s4.54,12,9.18,15.73a296.56,296.56,0,0,0,36.9,25.57c12.29,7.1,11.18,13,4,24.05-12.35,19.06-28,38.87-31.55,60.16-8.68,51.95-4.2,104.09,16.8,153.61,1.32,3.64,2.65,7.28,5,13.71,2.45-3.71,4-5.45,4.88-7.5,14.16-33.91,30.08-67.25,41.51-102.06,5.47-16.67,2.28-36.15,3.33-54.33.14-2.54,2.06-5,3.16-7.46a48.12,48.12,0,0,1,4.09,5.75c13,25.17,30.35,45.32,59.68,51.55,4.43.94,9,1.49,13.42,2.21-.58-5.17-.32-10.62-1.93-15.45-3.27-9.78-7.55-19.23-11.41-28.82,9.36,1.18,16.27,4.19,21.83,8.83,53.56,44.64,114,69.28,184.68,62.87,16.66-1.51,35.32-2.84,48.8-11.15,12.45-7.68,26.44-7.12,38.18-14.23,1.58-1,5.16,1.4,7.81,2.22-1.54,2-2.67,4.77-4.7,5.86-7,3.76-14.81,6.25-21.38,10.62-3.35,2.23-7.47,8.22-6.61,11.13,8.07,27,16.44,53.95,26.27,80.34,3.81,10.26,10.54,9.84,16.78-.29,28.44-46.15,35.63-96.66,27.77-148.92C873.64,229.49,864.42,191.91,835,163.63ZM556.54,275.94l-1.72-1.21.42,2.42c2.41,10,4.89,19.93,7.2,29.93.64,2.8.8,5.72,1.18,8.59-3.18,0-6.49.6-9.52-.07-28.49-6.29-54.6-16.69-72.29-47.36,0,51.53-18.68,92.94-39.15,133.78-4.67,9.33-13.14,18.34-13.71,27.87-2.23,36.89-1.28,73.61,13.48,108.88,13.58,32.45,26.77,63.8,57.94,85,37.79,25.66,80.23,34.65,123.86,40.64,40.33,5.53,78.37-3.79,112.15-25.5,23.48-15.09,46.84-32,65.74-52.23,35.17-37.74,49.86-84.24,45.24-136.09-.33-3.77-2.78-7.63-5.06-10.89-6.36-9.1-15.6-17-19.3-27-9.84-26.6-17.36-54-25.75-81C738.16,348.8,678.15,347.33,621,317.22,598.53,305.36,578,289.81,556.54,275.94Zm365.79,648.6c2.38-2,4.83-5.72,7.13-5.64,53.3,1.93,96.85,22.36,128.18,67,2.59,3.69,16.25,5.31,17.26,3.57,20.66-35.88,44.13-70.86,59.13-109.13,23.52-60,19.15-124.3,18.25-187.61-.81-57.24-11.64-112.32-33.38-165.27-21.26-51.75-50.37-98.53-84.71-142.83-36.68-47.3-84.24-79.46-135.25-108-7.41-4.14-8.65-.49-9,6.65-1,22.87-2.52,45.72-4.33,68.54-.54,6.66-2.72,13.19-4.18,20,22.33.36,35.74,7.81,39.82,21.41,10.6,35.26-10.66,90.12-42.54,109.76-13.89,8.56-32,27.77-39.67,42.71-25,48.46-60.61,86.1-111.18,109.56a37.8,37.8,0,0,0,4.26,2c46.23,13.58,86.7,36.51,120.29,71.6,7,7.36,17.8,11,26.25,17.22,4.51,3.3,10.08,7.85,11,12.66,1.87,9.22.68,19,1,28.58.12,3.28.26,6.87,1.62,9.74,2.65,5.58,6.9,10.46,9.22,16.15,14.56,35.76,15.91,73.8,18.73,111.57-1.34,28.2-7.62,53.62-37.58,65.27-12.73,4.95-16.55,15.32-18.3,27.61-.71,4.92-3.36,9.56-5.41,15.09,26.31,9.31,44,28.27,45.56,61.44,6-4.51,11.27-6.85,14.09-10.9,11.77-16.9,22.89-34.26,34-51.61a20.6,20.6,0,0,0,2.73-8.89c2.18-22.1,4.05-44.24,6.19-66.36,1-10.88,6.72-8.9,12.68-4,10.51,8.69,22.18,16.48,30.88,26.76,12.44,14.71,26.7,9.57,41.72,8.14-18.57-29.34-60.21-53.08-99.29-57.71C939.1,928.58,930.75,926.25,922.33,924.54Zm-400,208.17c0,5.33.65,10.76-.13,16-1.65,11,2.32,13.73,13.35,13.45,36.57-.89,73.18-.56,109.78-.55,23,0,45.91.82,68.85.3,22.59-.52,45.16-2.18,67.72-3.51,21.47-1.26,43.35-.61,64.25-4.81,15.88-3.19,33.53-7.68,41.83-25.51,9.72-20.88,11.58-42.66-.39-62.2-12.27-20-32.11-30.59-56.46-29.51-16.95.75-34,1.47-50.74,3.88-32.18,4.63-64.89,7.89-96.06,16.52-30.81,8.53-64.15,6.8-92.89,24.87-12.16,7.65-28.42,8.57-42.53,13.4C522.06,1104.21,522.14,1104.46,522.38,1132.71Zm-345-176.54,0-.33c7.33,0,14.68.29,22-.16,2.4-.15,6.09-1.7,6.78-3.53,10.4-27.18,24.11-53.8,29.59-82,7.64-39.36,10.61-79.85,12.53-120,1-21.23-4.17-42.81-7.37-64.1-.33-2.18-7.9-5.88-9.36-4.88-19.7,13.57-36.84,29.67-46.78,52.1-7.81,17.64-16.83,34.87-23.1,53-17.88,51.74-32.52,104.29-31.07,159.8.07,2.73,4.27,7.38,6.92,7.67C150.71,955.22,164.05,955.49,177.34,956.17ZM419.22,742.76h435c-3.56-3.42-7-6.48-10.19-9.81-32.11-33.62-71.46-55.1-115.79-67.43-6.06-1.69-17.87.86-20.25,5.17-11.23,20.34-29.13,31.25-47.89,43.36-29,18.72-93.66-10.12-98.31-45.29-1.05-8-4.42-9.49-11.67-8.82-36.91,3.43-68,20.13-95.37,43.56C442.08,714.36,432.08,728.36,419.22,742.76ZM120.07,937.59c7.13-81.32,26.86-157.55,67.71-227.54,1.27-2.18,1.21-5.67.63-8.3-3-13.64-5.36-27.53-9.85-40.69C171.73,641,165,620.62,155.1,602c-8.31-15.69-23.12-16.48-28-3.31-11.8,32-29.07,64.18-31.33,97.16-3.9,56.69.61,114.14,4.33,171.09C101.69,890.81,103.5,916.17,120.07,937.59Zm471.08,134.56c-6.3-2.44-10.71-5.08-15.41-5.81-51.55-8-103-16.67-154.8-22.86-12.9-1.54-27.24-3.26-40.6,7.69-27,22.12-25.89,48.79-16,76.82,5.71,16.24,17.74,28.94,35.27,37-5-17.63.58-23.87,17-22.23,5,.49,11.11-.24,15.16-2.84,11.34-7.28,21.67-16.14,32.8-23.79,8.51-5.84,17.06-13.1,26.66-15.53,10.88-2.76,22.13-.5,33.8-6C545.25,1085.15,567.49,1079.89,591.15,1072.15Zm385,81.68c6.41-3.16,22.51,2.79,19.49-14-5-27.72-36.5-50.69-64.49-47-9.57,1.26-20.83,7.26-26.69,14.73-7.65,9.75-10.64,23.15-15.76,34.93-4.35,10-3.61,16.68,9.72,15.82,14.22-.92,28.5-2.87,42.68-2.31,26.61,1,26.52,1.67,18.31-24.18-.63-2,.78-4.6,1.25-6.93,1.84,1,4.68,1.65,5.36,3.2C969.49,1136.08,972.44,1144.31,976.12,1153.83Zm-556-695.2-.26,0c0-8.75,1.77-18-.4-26.14-3.57-13.46-9.76-26.23-14.72-39.33-4.37-11.54-15.51-17.29-25-9.66-7.34,5.93-13.91,16.64-14.93,25.87-3.26,29.54,10.2,55.07,25.58,78.9,3.81,5.91,13.67,8.67,21.33,10.86,2.28.66,9.14-5.33,9.39-8.61C421.89,480,420.58,469.26,420.08,458.63ZM54.29,1023.74H225.75c0-3.8-.24-6.8,0-9.75,1.18-12.27-3.22-16.86-16.49-16.51-26.51.7-53.1-.47-79.64-1.4-22.58-.8-45.14-2.51-67.72-3.38-2.49-.09-7.18,2.54-7.3,4.17C53.93,1006.34,54.29,1015.88,54.29,1023.74Zm836-218.23-4.6-.7C881.05,865,876.46,925.12,871.81,986c36.52-20.68,34.52-20.83,37.23-45.73C914,894.26,907,848.93,890.25,805.51ZM376.44,812c-38.23,61.16-14.38,156.49,19.3,171.52Q386.19,898.64,376.44,812ZM568.11,662.68c9.53,29,38.58,49.16,68.3,49.05,21.58-.09,55.23-24.54,62.07-45.51C655.08,680.46,612.25,673.32,568.11,662.68ZM448.23,1164.55c13.88-.71,27.14-1.56,40.4-2,24.77-.83,24.77-.73,24.52-26-.06-5.32,1.39-11.21-.43-15.8s-6.29-10.65-10.7-11.79c-13.91-3.6-23.54,4.51-32.56,14.37-14.37,15.7-30.79,28.28-53.62,28.61-3.15,0-6.27,1.33-9.41,2,2.87,2.58,5.47,6.91,8.68,7.42C426.21,1163.21,437.53,1163.65,448.23,1164.55Zm754.28-5c19.06-1.15,38.18-1.87,57.2-3.62,11.41-1,14.66-8.35,6.5-16-8.72-8.25-19-16.23-30.06-20.16-8.15-2.88-18.85.27-28,2.52-1.37.34.28,10.59-.52,16.09C1206.75,1144.73,1204.67,1150.94,1202.51,1159.57Z" transform="translate(-5.28 -37.22)"/><path class="cls-2" d="M421,1034c-25.38-2.12-47.73,2.82-63.81,26.63,0-12.91-.36-25.83.11-38.72a307.47,307.47,0,0,1,2.83-31.77c1.33-9.34-3-11.58-11.2-11.54-35.94.16-71.89.07-108.8.07,4.61-22.26-13.72-18.07-23.93-22,7.47-19.14,17.9-37.49,21.61-57.11a1125.19,1125.19,0,0,0,16.18-120.29c2.19-27.88-.78-56.17-1.74-84.27-.12-3.52-1.72-7.11-3.15-10.45-7.2-16.88-12.8-18.48-27.33-7.4-8.41,6.41-16.38,13.38-24.45,20-6.94-24-13.12-48.12-20.93-71.63-6-18-12.75-35.93-33.05-44-2-.79-2.06-10.92-.32-15.74,17.49-48.28,38.91-94.54,68-137.25,42.69-62.69,94.91-114.64,162.09-150.81,2.38-1.28,3.57-4.78,5.32-7.24l9.87,1.7c2.43,33.69,4.87,67.39,7.3,100.87-28.62-2.05-47,18.33-39.82,50.89,5.08,23,15,45.28,25.19,66.75,6.82,14.43,22.76,16.94,37.43,19.49,2.75.48,6.56,2.53,7.46,4.81,5.82,14.82,11.33,29.79,16.27,44.94,13.64,41.81,44,67.86,81.37,87.57,2.82,1.49,5.59,3.07,10,5.49-47.19,12.26-85,36.45-112.37,74.61-7,9.77-14.67,12-24.06,16.32-8.65,4-19.91,15.56-19.59,23.38,1.21,30.34-18.79,53.15-24.46,80.52-10.38,50.13-5,97.35,30.11,137.62,2.73,3.14,8.35,3.67,12.47,5.74,1.45.72,3.16,2.24,3.46,3.67,1.2,5.86,2.82,11.85,2.61,17.73-.51,13.91,7.64,18.29,19.4,19.49A7.15,7.15,0,0,1,421,1034Z" transform="translate(-5.28 -37.22)"/><path class="cls-3" d="M27.82,1168c4.22,2,8.43,5.61,12.66,5.62q172.92.47,345.85.24,434.14,0,868.28-.15c4.56,0,9.11-2.37,13.66-3.63,10,4.9,5.6,12.44,1.23,16.94-6.06,6.24-13.64,13.09-21.68,15-46.08,10.79-92.32,21.11-138.84,29.8-43.89,8.19-88.12,14.7-132.34,21-36.69,5.19-73.56,9.1-110.38,13.29-19.73,2.24-39.5,4.89-59.31,5.52-18.86.6-37.79-1.56-56.7-1.76-9.63-.11-19.33,2.42-28.91,2-17.47-.8-34.88-3-52.32-4.47-6.6-.57-13.24-1.31-19.84-1.16-73,1.65-144.63-10.05-216.4-21.22-30.38-4.73-61.24-7.08-92-8.56-37.84-1.81-75.77-2.06-113.67-2.11-32.23,0-64.51,2.39-96.69,1.42a567,567,0,0,1-77-8.13c-18.63-3.15-34.11-13.15-41-32.43C7.33,1180.83,12.7,1171.47,27.82,1168Z" transform="translate(-5.28 -37.22)"/><path class="cls-4" d="M36.51,628.43c.83,1.75,1.27,3.89,2.56,5.18,14.6,14.66,29.55,29,43.83,43.95,2.62,2.74,3.69,7.93,3.73,12,.45,48.85-1.84,97.87,1.52,146.5,2.71,39.16,12.14,77.84,18.71,117.43-11.4,1.82-21.75.77-31-14.72C49.36,894.53,37.69,845.62,24,796.86,8.93,743,11.58,691.14,32.41,639.67c.94-2.34-.2-5.52-.36-8.3Z" transform="translate(-5.28 -37.22)"/><path class="cls-2" d="M920.32,924.71c-2.82-37.77-4.17-75.81-18.73-111.57-2.32-5.69-6.57-10.57-9.22-16.15-1.36-2.87-1.5-6.46-1.62-9.74-.32-9.55.87-19.36-1-28.58-1-4.81-6.54-9.36-11-12.66-8.45-6.18-19.2-9.86-26.25-17.22-33.59-35.09-74.06-58-120.29-71.6a37.8,37.8,0,0,1-4.26-2c50.57-23.46,86.23-61.1,111.18-109.56,7.7-14.94,25.78-34.15,39.67-42.71,31.88-19.64,53.14-74.5,42.54-109.76-4.08-13.6-17.49-21.05-39.82-21.41,1.46-6.79,3.64-13.32,4.18-20C887.46,329,889,306.13,890,283.26c.31-7.14,1.55-10.79,9-6.65,51,28.55,98.57,60.71,135.25,108,34.34,44.3,63.45,91.08,84.71,142.83,21.74,52.95,32.57,108,33.38,165.27.9,63.31,5.27,127.6-18.25,187.61-15,38.27-38.47,73.25-59.13,109.13-1,1.74-14.67.12-17.26-3.57-31.33-44.63-74.88-65.06-128.18-67-2.3-.08-4.75,3.67-7.13,5.63Z" transform="translate(-5.28 -37.22)"/><path class="cls-5" d="M654.47,750c54.36,1.21,108.72,2.55,163.08,3.53,15.58.28,31.18-.74,46.76-.64,4.76,0,9.5,1.77,14.24,2.72-21,34.86-42.73,69.35-62.95,104.68-24.8,43.34-58.94,79.12-90.94,116.74-20.7,24.33-40.7,49-69.83,64.22-4.79,2.51-7.07,9.83-10.51,14.93-20.6,7.66-40.68,4.64-61.5-.6-44.07-11.09-88.52-20.64-132.9-30.43-7.73-1.7-16.06-2.83-23.81-1.84-12.94,1.65-15.77-4.26-17-15.63-8.07-76-17.08-152-25-228.06-1.84-17.76,7.76-29.28,22.79-30.37,5.62-.41,11.45,2.79,17.16,2.7,52.76-.81,105.51-2.2,158.27-2.93,18.61-.26,37.25.82,55.87,1.29C643.85,760.54,649.2,757.54,654.47,750ZM634.83,939.89c18.25.16,32.9-15.13,32.68-34.11-.17-15-16.33-29.13-33.85-29.6-18.92-.5-33,13-33.17,31.83C600.32,924.39,616.85,939.73,634.83,939.89Z" transform="translate(-5.28 -37.22)"/><path class="cls-6" d="M556.54,275.94c21.44,13.87,42,29.42,64.49,41.28,57.12,30.11,117.13,31.58,176.22,14.42,8.39,27,15.91,54.41,25.75,81,3.7,10,12.94,17.9,19.3,27,2.28,3.26,4.73,7.12,5.06,10.89,4.62,51.85-10.07,98.35-45.24,136.09-18.9,20.28-42.26,37.14-65.74,52.23-33.78,21.71-71.82,31-112.15,25.5-43.63-6-86.07-15-123.86-40.64-31.17-21.15-44.36-52.5-57.94-85-14.76-35.27-15.71-72-13.48-108.88.57-9.53,9-18.54,13.71-27.87,20.47-40.84,39.15-82.25,39.15-133.78,17.69,30.67,43.8,41.07,72.29,47.36,3,.67,6.34.08,9.52.07-.38-2.87-.54-5.79-1.18-8.59-2.31-10-4.79-20-7.2-29.93A13.58,13.58,0,0,0,556.54,275.94ZM762,499.29c.43-23.26-14.56-46.54-30.19-46.9-21.68-.5-37.15,16.3-38,41.24-.54,16.34,19.18,36.14,36.19,36.33C746.31,530.15,761.74,515.34,762,499.29Zm-183.91-5.73C577.9,473,558.5,449.93,542,450.67c-15.17.68-30.17,22.84-30,44.33.12,17.19,15.8,34.92,30.82,34.87C558.84,529.81,578.3,509.8,578.13,493.56ZM621.4,603.19c12-5.25,24.12-10.2,35.83-16,2.52-1.25,3.49-5.6,5.18-8.52-3-.72-6.08-2.37-8.93-2-22,2.68-43.58,3.64-64-7.92-5.33-3-12.3-3.16-18.51-4.62,3.28,5,6.19,10.31,9.92,15C591,591.69,602.9,601.28,621.4,603.19ZM577,441.62c-.73-3.83-.74-4.88-1.13-5.77-6.77-15.37-20.37-20.35-35.37-21.72-17.19-1.57-34.3-.92-45.08,16-.92,1.43,0,5.24,1.39,6.65,1.67,1.7,5.15,3.34,7.16,2.74,22.19-6.66,43.66-6.81,64.57,4.74C570.42,445.27,574.39,442.5,577,441.62Zm156.08-28c-11.08,4.81-19.74,7.86-27.62,12.3-3.72,2.09-5.93,6.84-8.82,10.39,4.79,1,9.71,3.26,14.35,2.78,19.56-2,39.13-8.73,58.25,2.24,1.43.82,4.12-.56,6.22-.92-.78-2.58-.8-6.63-2.47-7.49C759.78,426.11,746.24,419.9,733.09,413.63Z" transform="translate(-5.28 -37.22)"/><path class="cls-7" d="M418.18,402.42c-21-49.52-25.48-101.66-16.8-153.61,3.56-21.29,19.2-41.1,31.55-60.16,7.19-11.09,8.3-17-4-24.05A296.56,296.56,0,0,1,392,139c-4.64-3.72-10.1-11.19-9.18-15.73s8.95-9.12,14.69-10.71c22.89-6.36,41.19,5.24,59.33,16.87,2.71,1.73,6.21,2.25,9.34,3.33-.3-3.3,0-6.82-1-9.85-3.73-10.66-8.68-21-11.55-31.81-1-3.69,1.72-10.75,4.8-12.4,2.71-1.46,10.17,1.21,12.3,4.29,6.41,9.24,11.08,19.66,16.79,29.41,1.32,2.26,4.09,3.67,6.2,5.47,1.42-2.38,3.95-4.71,4.09-7.17.94-17,11.28-26.35,25.78-32.25,20.49-8.34,40.52-21,61.76-23.65,38.29-4.72,77.82-7.72,116-3.53,58.55,6.43,113.52,26.63,156.75,69.22,12.32,12.13,20.89,28.31,30,43.35,3.53,5.82-.41,9.35-7.34,7.2-12-3.7-23.77-7.86-35.88-10.92-2.81-.71-6.55,2.23-9.86,3.48-10.45,3.25-8.93,8.09-4,16.29,11.73,19.55,26.68,38.82,31.92,60.25C875.58,292,869.06,343.78,851.2,394c-.66,1.85-2.37,3.32-4.33,6-2.67-6.86-4.86-12.39-7-18-2.24-5.91-4.14-12-6.64-17.77-3.81-8.84-12-18.08-10.87-26.1,1-7.37,11.93-13.35,18.48-19.93.24-.24.61-.43.7-.7,1.26-4.09,2.49-8.19,3.72-12.28-4.1-1.21-8.74-4.31-12.2-3.31-21.27,6.16-41.9,14.9-63.43,19.69-56.26,12.53-108.58,4.65-155.5-31.88-19.77-15.4-41.82-27.94-63.36-40.91-4.11-2.48-11.83-2.9-15.71-.6-3.09,1.83-4.18,9.35-3.82,14.17.6,8.11,3.06,16.08,5.17,26.16-5.22-3.13-9.63-4.77-12.69-7.78Q504,261.34,484.89,241.19c-9.62-10.14-17.45-8.58-21.55,5.26-6,20.09-11.27,40.37-17.11,60.5C437,338.8,427.54,370.6,418.18,402.42Z" transform="translate(-5.28 -37.22)"/><path class="cls-8" d="M522.38,1132.71c-.24-28.25-.32-28.5,26.58-37.7,14.11-4.83,30.37-5.75,42.53-13.4,28.74-18.07,62.08-16.34,92.89-24.87,31.17-8.63,63.88-11.89,96.06-16.52,16.75-2.41,33.79-3.13,50.74-3.88,24.35-1.08,44.19,9.49,56.46,29.51,12,19.54,10.11,41.32.39,62.2-8.3,17.83-25.95,22.32-41.83,25.51-20.9,4.2-42.78,3.55-64.25,4.81-22.56,1.33-45.13,3-67.72,3.51-22.94.52-45.9-.29-68.85-.3-36.6,0-73.21-.34-109.78.55-11,.28-15-2.48-13.35-13.45C523,1143.47,522.38,1138,522.38,1132.71Z" transform="translate(-5.28 -37.22)"/><path class="cls-3" d="M644.32,1056.13c3.44-5.1,5.72-12.42,10.51-14.93C684,1025.94,704,1001.31,724.66,977c32-37.62,66.14-73.4,90.94-116.74,20.22-35.33,41.91-69.82,62.95-104.68,1.67,8.15,5.92,16.74,4.6,24.38-10.45,60.47-15.42,121.31-17.37,182.63-.7,22-7.67,43.78-11.78,65.66l-2.16,1c-27.19.81-54.65-.53-81.48,3-35.79,4.66-71.09,13.08-106.59,19.91C657.27,1053.39,650.8,1054.79,644.32,1056.13Z" transform="translate(-5.28 -37.22)"/><path class="cls-4" d="M177.34,956.17c-13.29-.68-26.63-.95-39.85-2.38-2.65-.29-6.85-4.94-6.92-7.67-1.45-55.51,13.19-108.06,31.07-159.8,6.27-18.17,15.29-35.4,23.1-53,9.94-22.43,27.08-38.53,46.78-52.1,1.46-1,9,2.7,9.36,4.88,3.2,21.29,8.38,42.87,7.37,64.1-1.92,40.15-4.89,80.64-12.53,120-5.48,28.19-19.19,54.81-29.59,82-.69,1.83-4.38,3.38-6.78,3.53-7.3.45-14.65.16-22,.16Z" transform="translate(-5.28 -37.22)"/><path class="cls-6" d="M419.22,742.76c12.86-14.4,22.86-28.4,35.56-39.26,27.41-23.43,58.46-40.13,95.37-43.56,7.25-.67,10.62.87,11.67,8.82,4.65,35.17,69.31,64,98.31,45.29,18.76-12.11,36.66-23,47.89-43.36,2.38-4.31,14.19-6.86,20.25-5.17C772.6,677.85,812,699.33,844.06,733c3.18,3.33,6.63,6.39,10.19,9.81Z" transform="translate(-5.28 -37.22)"/><path class="cls-4" d="M120.07,937.59c-16.57-21.42-18.38-46.78-19.93-70.65-3.72-57-8.23-114.4-4.33-171.09,2.26-33,19.53-65.11,31.33-97.16,4.84-13.17,19.65-12.38,28,3.31,9.85,18.62,16.63,39,23.46,59.06,4.49,13.16,6.85,27.05,9.85,40.69.58,2.63.64,6.12-.63,8.3C146.93,780,127.2,856.27,120.07,937.59Z" transform="translate(-5.28 -37.22)"/><path class="cls-8" d="M237.53,985.55l5.76.46h.06c32.94.58,65.88,1,98.81,2,2.82.08,7.91,4.26,7.91,6.53,0,39.23-.65,78.45-1.15,117.68,0,.67,0,1.33,0,2-.63,28.86-2.83,32.21-30.41,37-17.93,3.09-36.14,5.49-54.29,6.08-18.71.6-25.23-6.9-25.18-25.52.1-36.28.64-72.55.74-108.83,0-10-.89-19.91-1.37-29.87v0c-.49-1.87-1-3.75-1.46-5.62C237.13,986.81,237.33,986.18,237.53,985.55Z" transform="translate(-5.28 -37.22)"/><path class="cls-3" d="M1048,998.12c40,3.47,75.66,16.35,102.38,48.13,4.69,5.57,10,10.83,13.62,17,2.15,3.68,2.78,12.68,2,12.94a77.43,77.43,0,0,1-20.55,3.67c-2.29.09-4.54-3.74-7.17-5.05s-5.9-1.85-8.88-2.72c1.3,3.1,1.86,6.91,4,9.17,12.41,13,21.5,13.49,37.29,3.84,6.8,9,15.23,17,19.63,26.82,4.53,10.1,6.58,22,6.55,33,0,3.49-10.13,9.75-15.79,10-36.1,1.3-72.24,1.31-108.37,1.63-9.62.08-19.25-.26-28.87-.4,5.92-15.48-.06-29-6.06-43-4.42-10.33-10.65-22.24-9-32.33C1033.19,1053,1041.31,1025.66,1048,998.12Zm63.94,100.41-18.25,13.23c3.48,3.85,6.54,8.24,10.57,11.38,3.44,2.69,8,3.94,12,5.83-3.76,3.06-7.67,6-11.22,9.26-1.69,1.57-2.68,3.89-4,5.87,2.19.91,5.52,3.21,6.39,2.5,5.85-4.78,11.25-10.12,16.64-15.43,2-2,3.33-4.51,5.32-6.43,4-3.87,8.22-7.49,12.34-11.22-4.41-3.48-8.5-7.58-13.36-10.26C1124.48,1101.1,1119.61,1100.63,1111.92,1098.53Zm-37.53-1.42c5.87-6.5,10.67-11.16,14.6-16.47,1.93-2.6,2.25-6.4,3.3-9.66-3.71,1.85-9.39,2.77-10.78,5.71-4.87,10.29-12.15,8.32-19.71,5.2-4.21-1.73-7.77-5-11.87-7.1-2-1-4.52-.92-6.8-1.33.57,2.63.28,6.68,1.86,7.64C1053.74,1086.43,1063,1091,1074.39,1097.11Z" transform="translate(-5.28 -37.22)"/><path class="cls-9" d="M80.49,1030.68c29.82,1,59.63,2.69,89.45,2.8,18.17.06,36.35-2.29,54.53-3.56l.6.49.75-.21c1,35,.29,69.67-14.59,102.66-7.48,16.59-18.81,25-36.86,24.77-14-.13-27.94,0-41.92.08.5-15.94-12.94-11.39-20.92-13.26-9.38-2.19-15.35-4.27-15.64-16s-4.12-23.39-6-35.14C86.6,1072.47,83.61,1051.56,80.49,1030.68Z" transform="translate(-5.28 -37.22)"/><path class="cls-8" d="M591.15,1072.15c-23.66,7.74-45.9,13-66.19,22.45-11.67,5.45-22.92,3.19-33.8,6-9.6,2.43-18.15,9.69-26.66,15.53-11.13,7.65-21.46,16.51-32.8,23.79-4.05,2.6-10.19,3.33-15.16,2.84-16.38-1.64-22,4.6-17,22.23-17.53-8-29.56-20.71-35.27-37-9.86-28-11-54.7,16-76.82,13.36-11,27.7-9.23,40.6-7.69,51.77,6.19,103.25,14.84,154.8,22.86C580.44,1067.07,584.85,1069.71,591.15,1072.15Z" transform="translate(-5.28 -37.22)"/><path class="cls-10" d="M418.18,402.42C427.54,370.6,437,338.8,446.23,307c5.84-20.13,11.15-40.41,17.11-60.5,4.1-13.84,11.93-15.4,21.55-5.26q19.08,20.15,38.87,39.59c3.06,3,7.47,4.65,12.69,7.78-2.11-10.08-4.57-18.05-5.17-26.16-.36-4.82.73-12.34,3.82-14.17,3.88-2.3,11.6-1.88,15.71.6,21.54,13,43.59,25.51,63.36,40.91,46.92,36.53,99.24,44.41,155.5,31.88,21.53-4.79,42.16-13.53,63.43-19.69,3.46-1,8.1,2.1,12.2,3.31-1.23,4.09-2.46,8.19-3.72,12.28-.09.27-.46.46-.7.7-6.55,6.58-17.45,12.56-18.48,19.93-1.13,8,7.06,17.26,10.87,26.1,2.5,5.8,4.4,11.86,6.64,17.77,2.1,5.56,4.29,11.09,7,18,2-2.65,3.67-4.12,4.33-6,17.86-50.22,24.38-102,11.73-153.83-5.24-21.43-20.19-40.7-31.92-60.25-4.92-8.2-6.44-13,4-16.29,29.4,28.28,38.62,65.86,44.3,103.67,7.86,52.26.67,102.77-27.77,148.92-6.24,10.13-13,10.55-16.78.29-9.83-26.39-18.2-53.35-26.27-80.34-.86-2.91,3.26-8.9,6.61-11.13,6.57-4.37,14.36-6.86,21.38-10.62,2-1.09,3.16-3.86,4.7-5.86-2.65-.82-6.23-3.18-7.81-2.22-11.74,7.11-25.73,6.55-38.18,14.23-13.48,8.31-32.14,9.64-48.8,11.15-70.67,6.41-131.12-18.23-184.68-62.87-5.56-4.64-12.47-7.65-21.83-8.83,3.86,9.59,8.14,19,11.41,28.82,1.61,4.83,1.35,10.28,1.93,15.45-4.47-.72-9-1.27-13.42-2.21-29.33-6.23-46.66-26.38-59.68-51.55a48.12,48.12,0,0,0-4.09-5.75c-1.1,2.48-3,4.92-3.16,7.46-1.05,18.18,2.14,37.66-3.33,54.33C458.12,341.38,442.2,374.72,428,408.63c-.85,2.05-2.43,3.79-4.88,7.5C420.83,409.7,419.5,406.06,418.18,402.42Z" transform="translate(-5.28 -37.22)"/><path class="cls-7" d="M920.32,924.71l2-.18c8.42,1.72,16.77,4.05,25.27,5.05,39.08,4.63,80.72,28.37,99.29,57.71-15,1.43-29.28,6.57-41.72-8.14-8.7-10.28-20.37-18.07-30.88-26.76-6-4.93-11.63-6.91-12.68,4-2.14,22.12-4,44.26-6.19,66.36a20.6,20.6,0,0,1-2.73,8.89c-11.12,17.35-22.24,34.71-34,51.61-2.82,4-8.1,6.39-14.09,10.9C903.05,1061,885.34,1042,859,1032.68c2.05-5.53,4.7-10.17,5.41-15.09,1.75-12.29,5.57-22.66,18.3-27.61C912.7,978.33,919,952.91,920.32,924.71Z" transform="translate(-5.28 -37.22)"/><path class="cls-7" d="M1048,998.12c-6.67,27.54-14.79,54.85-19.23,82.75-1.6,10.09,4.63,22,9,32.33,6,14,12,27.53,6.06,43H1003c7.91-36.5-20.16-65-71.46-74C943.53,1039.45,1004.76,995.24,1048,998.12Z" transform="translate(-5.28 -37.22)"/><path class="cls-6" d="M854.41,504.37c-.77-23.71-1.69-47.41-2.1-71.13,0-2.9,2.54-5.91,4.09-8.77,6-11.08,12.72-21.84,18-33.26,5.43-11.82,19.07-15.39,29.44-6.63,14.63,12.37,14.54,29.06,10.28,44.92-8.93,33.22-22.58,63.66-59.83,74.62Z" transform="translate(-5.28 -37.22)"/><path class="cls-9" d="M976.12,1153.83c-3.68-9.52-6.63-17.75-10.13-25.73-.68-1.55-3.52-2.15-5.36-3.2-.47,2.33-1.88,4.95-1.25,6.93,8.21,25.85,8.3,25.22-18.31,24.18-14.18-.56-28.46,1.39-42.68,2.31-13.33.86-14.07-5.81-9.72-15.82,5.12-11.78,8.11-25.18,15.76-34.93,5.86-7.47,17.12-13.47,26.69-14.73,28-3.68,59.51,19.29,64.49,47C998.63,1156.62,982.53,1150.67,976.12,1153.83Z" transform="translate(-5.28 -37.22)"/><path class="cls-6" d="M420.08,458.63c.5,10.63,1.81,21.32,1,31.85-.25,3.28-7.11,9.27-9.39,8.61-7.66-2.19-17.52-4.95-21.33-10.86-15.38-23.83-28.84-49.36-25.58-78.9,1-9.23,7.59-19.94,14.93-25.87,9.46-7.63,20.6-1.88,25,9.66,5,13.1,11.15,25.87,14.72,39.33,2.17,8.17.4,17.39.4,26.14Z" transform="translate(-5.28 -37.22)"/><path class="cls-6" d="M54.29,1023.74c0-7.86-.36-17.4.35-26.87.12-1.63,4.81-4.26,7.3-4.17,22.58.87,45.14,2.58,67.72,3.38,26.54.93,53.13,2.1,79.64,1.4,13.27-.35,17.67,4.24,16.49,16.51-.28,3,0,6,0,9.75Z" transform="translate(-5.28 -37.22)"/><path class="cls-6" d="M890.25,805.51C907,848.93,914,894.26,909,940.3c-2.71,24.9-.71,25.05-37.23,45.73,4.65-60.91,9.24-121.07,13.84-181.22Z" transform="translate(-5.28 -37.22)"/><path class="cls-6" d="M376.44,812q9.72,86.47,19.3,171.52C362.06,968.52,338.21,873.19,376.44,812Z" transform="translate(-5.28 -37.22)"/><path class="cls-6" d="M568.11,662.68c44.14,10.64,87,17.78,130.37,3.54-6.84,21-40.49,45.42-62.07,45.51C606.69,711.84,577.64,691.72,568.11,662.68Z" transform="translate(-5.28 -37.22)"/><path class="cls-9" d="M74.08,965.38c12.22-1.06,24.46-3.25,36.65-3,39.77.89,79.53,2.69,119.07,4.13-1.62,21.16-12.6,23.11-28.69,22.11C159,986,116.68,985.29,74.45,983.82Q74.27,974.59,74.08,965.38Z" transform="translate(-5.28 -37.22)"/><path class="cls-6" d="M448.23,1164.55c-10.7-.9-22-1.34-33.12-3.11-3.21-.51-5.81-4.84-8.68-7.42,3.14-.71,6.26-2,9.41-2,22.83-.33,39.25-12.91,53.62-28.61,9-9.86,18.65-18,32.56-14.37,4.41,1.14,8.82,7,10.7,11.79s.37,10.48.43,15.8c.25,25.22.25,25.12-24.52,26C475.37,1163,462.11,1163.84,448.23,1164.55Z" transform="translate(-5.28 -37.22)"/><path class="cls-3" d="M80.49,1030.68c3.12,20.88,6.11,41.79,9.42,62.65,1.86,11.75,5.7,23.38,6,35.14s6.26,13.79,15.64,16c8,1.87,21.42-2.68,20.92,13.26-14.38-1.79-29.3-1.86-42.91-6.12-6.78-2.11-14.54-11.18-16.06-18.33-6.61-31.13-11.27-62.68-16-94.17-.36-2.41,4.13-7.23,7.15-8.06C69.6,1029.67,75.19,1030.67,80.49,1030.68Z" transform="translate(-5.28 -37.22)"/><path class="cls-9" d="M1202.51,1159.57c2.16-8.63,4.24-14.84,5.15-21.22.8-5.5-.85-15.75.52-16.09,9.12-2.25,19.82-5.4,28-2.52,11.07,3.93,21.34,11.91,30.06,20.16,8.16,7.7,4.91,15-6.5,16C1240.69,1157.7,1221.57,1158.42,1202.51,1159.57Z" transform="translate(-5.28 -37.22)"/><path class="cls-3" d="M1110.3,1003.59,1096.78,998l5,3.85,46.77-51.3v79.74l-14.47-12.14c1.82-13.8,3.64-27.61,5.93-45-5.75,6.85-8.25,10.35-11.27,13.32C1122.73,992.32,1116.46,997.89,1110.3,1003.59Z" transform="translate(-5.28 -37.22)"/><path class="cls-3" d="M974.22,1010.39l-11,8.1c1.82-19,3.59-37.45,5.52-57.65l42.09,34.93-8.55,4.39c-3.4-3-6.74-6.17-10.21-9.14-13.3-11.38-13.45-11.39-16.54,4.64C974.61,1000.47,974.63,1005.47,974.22,1010.39Z" transform="translate(-5.28 -37.22)"/><path class="cls-9" d="M1110.3,1003.59c6.16-5.7,12.43-11.27,18.42-17.14,3-3,5.52-6.47,11.27-13.32-2.29,17.43-4.11,31.24-5.93,45Z" transform="translate(-5.28 -37.22)"/><path class="cls-5" d="M974.22,1010.39c.41-4.92.39-9.92,1.31-14.73,3.09-16,3.24-16,16.54-4.64,3.47,3,6.81,6.09,10.21,9.14Z" transform="translate(-5.28 -37.22)"/><path class="cls-3" d="M74.08,965.38q.19,9.23.37,18.44l-18.67,1.53C51.9,970,54.94,966.58,74.08,965.38Z" transform="translate(-5.28 -37.22)"/><path class="cls-4" d="M421,1034a7.15,7.15,0,0,0,0-2l49.64,4.59c.12.93.25,1.87.38,2.8Z" transform="translate(-5.28 -37.22)"/><path class="cls-6" d="M654.47,750c-5.27,7.59-10.62,10.59-16.23.31Z" transform="translate(-5.28 -37.22)"/><path class="cls-10" d="M237.53,985.55c-.2.63-.4,1.26-.61,1.88l-4.19-1,1.13-3.24Z" transform="translate(-5.28 -37.22)"/><path class="cls-10" d="M471,1039.45c-.13-.93-.26-1.87-.38-2.8l6.52,1.62c0,.39-.07.79-.1,1.18Z" transform="translate(-5.28 -37.22)"/><path class="cls-6" d="M555.24,277.15l-.42-2.42,1.72,1.21A13.58,13.58,0,0,1,555.24,277.15Z" transform="translate(-5.28 -37.22)"/><polygon class="cls-10" points="233.1 955.84 233.1 955.86 232.66 955.86 233.1 955.84"/><path class="cls-7" d="M225.82,1030.2l-.75.21-.6-.49,1.27-1.23Z" transform="translate(-5.28 -37.22)"/><path class="cls-7" d="M851.84,1029.25l2.16-1c0,.47.07.94.11,1.41Z" transform="translate(-5.28 -37.22)"/><polygon class="cls-10" points="238.07 948.8 238.01 948.79 238.08 948.33 238.07 948.8"/><path class="cls-6" d="M854.26,504.12l-1.24,1c0-.3,0-.61,0-.92l1.43.13Z" transform="translate(-5.28 -37.22)"/><path class="cls-9" d="M858.56,179.14l-.93-2.43,3.66.12Z" transform="translate(-5.28 -37.22)"/><path class="cls-1" d="M634.83,939.89c-18-.16-34.51-15.5-34.34-31.88.19-18.84,14.25-32.33,33.17-31.83,17.52.47,33.68,14.59,33.85,29.6C667.73,924.76,653.08,940.05,634.83,939.89Zm-24.89-32.53c-.25,12.23,10.48,22.52,23.94,23S657.72,921,658,907.89c.27-12.72-10.53-21.57-26.91-22.07C619.18,885.45,610.2,894.6,609.94,907.36Z" transform="translate(-5.28 -37.22)"/><path class="cls-1" d="M762,499.29c-.3,16.05-15.73,30.86-32,30.67-17-.19-36.73-20-36.19-36.33.82-24.94,16.29-41.74,38-41.24C747.48,452.75,762.47,476,762,499.29Zm-26-16.37c-6.48-4.53-10.74-9.57-13.26-8.81-4.73,1.41-8.45,6.18-12.6,9.56,4,3.59,7.65,9.07,12.25,10.09C725.28,494.4,729.64,488.28,736,482.92Z" transform="translate(-5.28 -37.22)"/><path class="cls-1" d="M578.13,493.56c.17,16.24-19.29,36.25-35.34,36.31-15,0-30.7-17.68-30.82-34.87-.16-21.49,14.84-43.65,30-44.33C558.5,449.93,577.9,473,578.13,493.56Zm-28.72,5.81c5.09-7,10.87-12.43,9.94-14.05-3-5.24-8.14-9.59-13.34-12.91-.81-.52-9.44,7-8.81,9.24C538.7,487,543.56,491.38,549.41,499.37Z" transform="translate(-5.28 -37.22)"/><path class="cls-1" d="M621.4,603.19c-18.5-1.91-30.44-11.5-40.52-24.12-3.73-4.66-6.64-10-9.92-15,6.21,1.46,13.18,1.6,18.51,4.62,20.43,11.56,42,10.6,64,7.92,2.85-.34,5.95,1.31,8.93,2-1.69,2.92-2.66,7.27-5.18,8.52C645.52,593,633.38,597.94,621.4,603.19Z" transform="translate(-5.28 -37.22)"/><path class="cls-1" d="M577,441.62c-2.62.88-6.59,3.65-8.46,2.62-20.91-11.55-42.38-11.4-64.57-4.74-2,.6-5.49-1-7.16-2.74-1.39-1.41-2.31-5.22-1.39-6.65,10.78-16.9,27.89-17.55,45.08-16,15,1.37,28.6,6.35,35.37,21.72C576.27,436.74,576.28,437.79,577,441.62Z" transform="translate(-5.28 -37.22)"/><path class="cls-1" d="M733.09,413.63c13.15,6.27,26.69,12.48,39.91,19.3,1.67.86,1.69,4.91,2.47,7.49-2.1.36-4.79,1.74-6.22.92-19.12-11-38.69-4.28-58.25-2.24-4.64.48-9.56-1.78-14.35-2.78,2.89-3.55,5.1-8.3,8.82-10.39C713.35,421.49,722,418.44,733.09,413.63Z" transform="translate(-5.28 -37.22)"/><path class="cls-1" d="M1111.92,1098.53c7.69,2.1,12.56,2.57,16.48,4.73,4.86,2.68,8.95,6.78,13.36,10.26-4.12,3.73-8.35,7.35-12.34,11.22-2,1.92-3.35,4.48-5.32,6.43-5.39,5.31-10.79,10.65-16.64,15.43-.87.71-4.2-1.59-6.39-2.5,1.31-2,2.3-4.3,4-5.87,3.55-3.29,7.46-6.2,11.22-9.26-4-1.89-8.6-3.14-12-5.83-4-3.14-7.09-7.53-10.57-11.38Z" transform="translate(-5.28 -37.22)"/><path class="cls-1" d="M1074.39,1097.11c-11.44-6.11-20.65-10.68-29.4-16-1.58-1-1.29-5-1.86-7.64,2.28.41,4.83.32,6.8,1.33,4.1,2.1,7.66,5.37,11.87,7.1,7.56,3.12,14.84,5.09,19.71-5.2,1.39-2.94,7.07-3.86,10.78-5.71-1,3.26-1.37,7.06-3.3,9.66C1085.06,1086,1080.26,1090.61,1074.39,1097.11Z" transform="translate(-5.28 -37.22)"/><path class="cls-7" d="M609.94,907.36c.26-12.76,9.24-21.91,21.15-21.54,16.38.5,27.18,9.35,26.91,22.07-.28,13.12-10.77,22.88-24.12,22.43S609.69,919.59,609.94,907.36Z" transform="translate(-5.28 -37.22)"/><path class="cls-5" d="M736,482.92c-6.39,5.36-10.75,11.48-13.61,10.84-4.6-1-8.22-6.5-12.25-10.09,4.15-3.38,7.87-8.15,12.6-9.56C725.29,473.35,729.55,478.39,736,482.92Z" transform="translate(-5.28 -37.22)"/><path class="cls-5" d="M549.41,499.37c-5.85-8-10.71-12.39-12.21-17.72-.63-2.23,8-9.76,8.81-9.24,5.2,3.32,10.33,7.67,13.34,12.91C560.28,486.94,554.5,492.41,549.41,499.37Z" transform="translate(-5.28 -37.22)"/></svg>