<?xml version="1.0" standalone="no"?>
<!DOCTYPE svg PUBLIC "-//W3C//DTD SVG 20010904//EN"
 "http://www.w3.org/TR/2001/REC-SVG-20010904/DTD/svg10.dtd">
<svg version="1.0" xmlns="http://www.w3.org/2000/svg"
 width="405.000000pt" height="405.000000pt" viewBox="0 0 405.000000 405.000000"
 preserveAspectRatio="xMidYMid meet">
<metadata>
Created by potrace 1.14, written by Peter Selinger 2001-2017
</metadata>
<g transform="translate(0.000000,405.000000) scale(0.100000,-0.100000)"
fill="#000000" stroke="none">
<path d="M1820 3910 c-77 -21 -206 -90 -236 -126 l-21 -25 -26 40 c-29 43 -58
52 -99 30 -18 -10 -20 -17 -14 -65 3 -30 2 -54 -3 -54 -5 0 -25 7 -44 15 -24
10 -52 13 -84 9 -68 -9 -93 -27 -93 -68 0 -38 17 -56 116 -120 l61 -40 -34
-44 c-51 -66 -85 -140 -92 -197 -6 -50 -6 -50 -47 -55 -83 -12 -298 -173 -417
-315 -75 -89 -188 -257 -234 -349 -47 -93 -115 -276 -109 -292 2 -6 -5 -20
-16 -31 -26 -23 -59 -88 -93 -185 l-27 -78 -29 39 c-28 39 -80 83 -111 94 -11
4 -28 -4 -46 -21 -67 -63 -93 -305 -52 -482 47 -201 76 -289 133 -399 61 -119
62 -130 10 -131 -49 0 -55 -114 -18 -367 28 -194 44 -236 95 -263 l35 -19
-102 -1 c-92 0 -127 -9 -90 -23 7 -2 872 -5 1923 -6 l1910 -2 32 31 c18 16 32
37 32 46 0 32 -32 74 -75 100 -37 21 -55 25 -102 22 -53 -3 -60 -1 -85 27 -15
17 -34 50 -43 75 -8 25 -28 64 -44 87 -28 42 -28 44 -23 156 5 131 -7 187 -40
187 -13 0 -50 -30 -97 -80 -42 -44 -81 -80 -88 -80 -7 0 10 35 36 78 111 179
144 266 176 466 15 90 17 147 12 335 -8 319 -39 455 -162 707 -68 140 -231
372 -316 449 -71 65 -249 187 -307 211 -29 12 -57 26 -61 30 -4 5 -18 53 -30
106 -13 55 -34 114 -47 133 l-24 36 59 -7 c58 -6 60 -6 66 19 12 48 -14 96
-99 181 -85 85 -140 118 -291 177 -122 47 -205 59 -393 58 -127 -1 -183 -5
-232 -19z m520 -33 c139 -48 236 -90 285 -123 60 -39 162 -145 176 -182 22
-58 6 -64 -85 -32 -53 18 -59 18 -82 4 -13 -9 -24 -19 -24 -23 0 -3 15 -27 33
-53 78 -109 111 -234 101 -382 -5 -76 -52 -266 -66 -266 -4 0 -8 6 -8 13 0 6
-16 48 -35 92 l-35 79 40 41 c22 22 40 46 40 52 0 33 -84 21 -210 -30 -47 -19
-74 -22 -186 -22 l-131 0 -84 42 c-46 23 -116 67 -155 97 -85 65 -167 108
-197 104 -20 -3 -22 -9 -21 -60 1 -34 -3 -58 -9 -58 -10 0 -106 94 -139 138
-44 55 -61 24 -137 -246 -38 -134 -71 -245 -74 -249 -3 -3 -18 34 -32 81 -23
76 -27 106 -28 239 -2 173 1 186 87 310 l46 67 -67 48 c-77 54 -123 96 -123
111 0 17 56 41 94 41 20 0 63 -15 102 -35 37 -19 69 -33 72 -30 2 2 -8 37 -22
77 -26 69 -26 73 -10 85 26 19 34 13 72 -55 19 -34 38 -62 43 -62 4 0 13 18
19 39 11 43 33 62 120 106 115 58 155 65 380 61 154 -2 216 -7 250 -19z m-751
-721 c46 -42 139 -86 182 -86 17 0 20 5 16 23 -13 53 -19 97 -13 97 4 0 30
-17 59 -39 104 -78 229 -136 327 -152 87 -14 219 -12 293 6 74 17 87 15 87
-16 0 -26 49 -197 65 -229 7 -14 27 -38 44 -54 30 -29 31 -33 31 -116 0 -47
-7 -113 -15 -145 -22 -84 -87 -188 -170 -271 -77 -78 -159 -128 -277 -169 -73
-26 -85 -27 -210 -23 -165 6 -276 36 -385 105 -116 72 -160 135 -224 320 -26
73 -29 97 -29 202 l0 119 45 85 c57 107 104 243 112 325 3 34 8 62 11 62 3 0
26 -20 51 -44z m-303 -299 c1 -1 15 -39 33 -84 26 -69 31 -96 31 -167 0 -100
-5 -116 -35 -116 -55 0 -122 102 -146 222 -19 95 25 168 91 152 14 -3 25 -6
26 -7z m1571 -2 c32 -22 46 -83 33 -140 -12 -55 -54 -140 -84 -173 -20 -23
-86 -62 -103 -62 -4 0 -8 51 -8 113 1 112 1 114 39 188 22 41 44 77 50 81 18
12 50 9 73 -7z m-2344 -684 c28 -34 68 -143 92 -251 l16 -75 -61 -129 c-69
-144 -132 -362 -147 -516 l-9 -85 -17 33 c-41 77 -58 195 -64 462 -4 213 -3
266 11 322 18 79 67 209 96 256 23 37 40 34 83 -17z m-249 -196 l34 -45 -3
-178 c-4 -221 8 -366 40 -518 14 -66 28 -126 31 -135 5 -19 -24 -30 -55 -22
-27 7 -95 122 -131 222 -51 140 -101 348 -107 451 -5 84 -3 107 21 187 14 50
30 103 36 118 l10 26 45 -31 c24 -17 60 -51 79 -75z m1531 -28 c18 -52 45 -79
113 -112 88 -43 124 -43 207 3 53 29 78 51 104 90 42 62 57 64 152 26 118 -48
199 -96 267 -160 l67 -63 -60 -1 c-33 -1 -170 0 -305 2 -135 2 -413 1 -617 -1
-288 -3 -373 -1 -373 8 0 18 107 128 160 164 73 51 168 86 223 84 47 -2 49 -3
62 -40z m132 14 c101 -16 121 -17 195 -5 46 8 84 14 86 14 12 1 -4 -33 -30
-59 -43 -44 -119 -81 -166 -81 -74 0 -181 69 -205 133 -8 21 -17 21 120 -2z
m-1136 -78 c16 -60 17 -165 1 -364 -13 -170 -41 -292 -90 -389 l-28 -55 -117
-3 -117 -3 0 86 c0 155 61 388 149 570 38 77 62 113 104 153 31 28 62 52 70
52 9 0 20 -19 28 -47z m1255 -177 c397 -2 726 -6 733 -10 16 -10 14 -72 -8
-242 -11 -82 -22 -207 -25 -279 -6 -134 -19 -232 -38 -297 l-11 -38 -56 0
c-124 -1 -350 -31 -486 -65 -76 -19 -164 -35 -194 -35 -57 0 -231 34 -386 74
-49 13 -115 27 -145 30 -118 14 -118 14 -125 59 -3 23 -12 83 -20 132 -19 120
-43 354 -51 492 -5 82 -3 121 6 143 14 33 45 52 70 44 8 -3 339 -7 736 -8z
m793 -240 c26 -84 45 -254 38 -334 -7 -75 -24 -105 -75 -135 -36 -21 -50 -22
-44 -3 2 5 7 91 12 190 9 187 28 346 41 346 5 0 17 -29 28 -64z m-1620 -35 c1
-58 14 -177 37 -334 20 -137 20 -136 -17 -101 -69 64 -107 208 -90 342 9 70
29 145 47 174 12 18 23 -21 23 -81z m1756 -281 c22 0 59 -9 81 -19 23 -10 55
-22 73 -26 36 -8 145 -85 160 -113 13 -25 5 -32 -39 -32 -30 0 -49 11 -108 61
-42 34 -80 59 -90 57 -14 -3 -19 -22 -27 -123 l-10 -120 -63 -92 c-35 -51 -68
-96 -74 -99 -13 -8 -28 14 -28 42 0 40 -71 119 -121 136 -7 2 -5 23 5 58 15
50 22 58 79 95 65 42 76 60 92 159 5 29 9 36 18 27 6 -6 29 -11 52 -11z m653
-212 l-3 -108 -50 36 c-27 20 -65 42 -82 50 l-33 14 78 79 c92 94 94 93 90
-71z m-2922 93 l40 -6 -8 -34 -9 -34 -227 7 c-125 4 -244 7 -264 6 -36 -1 -38
1 -38 29 0 33 7 36 80 45 45 5 373 -5 426 -13z m2458 -63 c33 -28 26 -37 -39
-58 -22 -7 -51 -20 -64 -28 l-23 -16 7 75 c3 41 9 82 11 92 6 19 3 20 108 -65z
m-2046 -238 c-3 -202 -5 -242 -19 -255 -16 -16 -144 -34 -246 -35 -40 0 -55 4
-62 18 -5 10 -11 129 -13 265 l-3 247 173 0 173 0 -3 -240z m-470 204 l82 -6
0 -39 0 -38 -264 2 -264 2 -6 33 c-10 65 -13 65 188 58 100 -4 218 -9 264 -12z
m2765 -20 c80 -21 110 -37 179 -96 72 -62 105 -112 88 -133 -16 -20 -55 -19
-86 1 -37 25 -40 10 -4 -20 36 -30 45 -31 82 -12 25 13 28 13 33 -5 4 -11 20
-36 37 -55 32 -36 48 -106 30 -132 -17 -26 -132 -34 -369 -27 l-233 7 0 37 c0
47 -45 120 -91 149 -19 11 -53 25 -76 31 -23 7 -45 16 -48 21 -8 13 90 155
123 179 15 10 43 24 62 30 19 6 46 18 60 26 34 19 138 19 213 -1z m-2676 -183
c-7 -115 -38 -220 -76 -264 l-29 -31 -133 -4 c-157 -4 -204 7 -232 56 -20 35
-57 222 -57 293 l0 46 266 0 267 0 -6 -96z m1993 59 c89 -45 125 -147 86 -241
-19 -46 -43 -66 -107 -91 -66 -25 -292 -37 -752 -37 l-298 0 3 92 3 91 120 38
c66 21 125 45 131 53 6 8 22 15 36 15 14 0 103 18 199 41 119 28 221 45 324
53 164 14 202 12 255 -14z m-1080 -35 c168 -30 220 -43 220 -54 0 -4 -45 -20
-100 -35 -54 -16 -107 -34 -117 -42 -10 -7 -42 -14 -71 -14 -49 0 -56 -3 -99
-46 -56 -55 -110 -84 -156 -84 -36 0 -52 -12 -59 -45 -4 -17 -11 -13 -55 31
-53 54 -63 81 -63 176 0 36 6 54 28 80 58 71 54 69 197 64 75 -3 191 -16 275
-31z m1371 -130 c55 -20 87 -49 111 -104 22 -49 16 -63 -34 -75 -25 -6 -28 -4
-28 19 0 31 -16 65 -31 65 -6 0 -7 -9 -3 -22 18 -56 14 -68 -20 -68 -18 0 -74
-3 -124 -6 -90 -7 -92 -6 -92 15 0 12 7 33 16 46 9 13 22 44 28 67 21 70 88
94 177 63z m-1388 -80 c4 -22 7 -58 5 -80 l-3 -40 -98 -8 c-107 -9 -228 1
-234 19 -2 7 14 14 38 18 55 9 87 26 155 86 50 43 63 51 93 48 32 -3 36 -6 44
-43z m2285 0 c81 -35 111 -97 51 -109 -35 -7 -163 -8 -170 -2 -2 2 -2 29 -1
60 4 57 9 62 60 65 12 0 39 -6 60 -14z"/>
<path d="M1599 2732 c-47 -42 -33 -52 59 -46 57 4 88 2 121 -10 24 -9 46 -14
49 -12 2 3 1 17 -2 31 -10 40 -61 65 -133 65 -55 0 -67 -4 -94 -28z"/>
<path d="M2240 2728 c-19 -13 -34 -28 -32 -33 1 -6 55 -10 126 -10 96 0 122 3
119 13 -9 22 -64 44 -122 49 -47 4 -61 1 -91 -19z"/>
<path d="M1673 2618 c-54 -60 -59 -129 -12 -183 44 -49 84 -48 139 3 42 41 49
67 29 119 -29 78 -111 109 -156 61z m97 -53 c30 -36 -14 -71 -54 -42 -13 9
-16 20 -12 35 8 26 47 30 66 7z"/>
<path d="M2252 2624 c-48 -34 -66 -109 -38 -163 51 -98 196 -71 196 38 0 83
-41 141 -100 141 -19 0 -46 -7 -58 -16z m63 -93 c-5 -17 -13 -21 -33 -19 -37
4 -44 44 -10 57 30 12 53 -8 43 -38z"/>
<path d="M1810 2287 c0 -23 86 -98 122 -106 44 -10 123 10 151 37 11 12 18 24
14 28 -3 4 -41 6 -84 5 -66 -2 -86 2 -128 24 -56 28 -75 31 -75 12z"/>
<path d="M1970 1309 c-46 -19 -60 -39 -60 -90 0 -40 4 -51 31 -73 36 -30 101
-35 136 -11 33 23 47 76 30 117 -8 18 -20 38 -28 44 -21 17 -81 24 -109 13z
m98 -42 c13 -10 16 -75 4 -94 -16 -26 -58 -32 -93 -15 -29 14 -35 23 -37 55
-4 43 9 64 41 70 27 5 68 -3 85 -16z"/>
<path d="M3414 691 c-22 -25 -44 -26 -85 -5 -34 17 -43 15 -33 -9 8 -23 72
-50 100 -43 30 8 61 53 46 68 -7 7 -16 4 -28 -11z"/>
<path d="M3477 604 c-36 -19 -32 -44 10 -64 39 -18 41 -27 8 -40 -32 -12 -32
-30 -1 -30 27 0 56 24 56 46 0 8 11 20 25 26 31 14 32 46 3 57 -50 18 -74 19
-101 5z"/>
</g>
</svg>
