<?xml version="1.0" standalone="no"?>
<!DOCTYPE svg PUBLIC "-//W3C//DTD SVG 20010904//EN"
 "http://www.w3.org/TR/2001/REC-SVG-20010904/DTD/svg10.dtd">
<svg version="1.0" xmlns="http://www.w3.org/2000/svg"
 width="1024.000000pt" height="1024.000000pt" viewBox="0 0 1024.000000 1024.000000"
 preserveAspectRatio="xMidYMid meet">
<metadata>
Created by potrace 1.14, written by Peter Selinger 2001-2017
</metadata>
<g transform="translate(0.000000,1024.000000) scale(0.100000,-0.100000)"
fill="#000000" stroke="none">
<path d="M0 5120 l0 -5120 5120 0 5120 0 0 5120 0 5120 -5120 0 -5120 0 0
-5120z m2929 3024 c86 -72 39 -210 -71 -208 -35 1 -48 8 -75 38 -96 104 38
261 146 170z m4527 -8 c29 -29 34 -41 34 -81 0 -40 -5 -52 -34 -81 -28 -28
-42 -34 -76 -34 -35 0 -48 6 -77 35 -33 33 -35 38 -31 87 4 42 11 57 37 80 46
42 102 39 147 -6z m-4216 -11 c56 -29 60 -113 8 -149 -80 -57 -179 42 -122
122 28 41 69 50 114 27z m309 -11 c25 -21 31 -33 31 -67 0 -57 -30 -87 -85
-87 -86 0 -121 94 -57 151 40 36 71 37 111 3z m2961 -12 c26 -32 25 -82 -1
-116 -16 -21 -29 -26 -63 -26 -54 0 -90 34 -90 85 0 82 104 121 154 57z m597
12 c30 -19 39 -73 19 -112 -17 -34 -33 -42 -82 -42 -91 0 -116 129 -32 165 35
15 59 12 95 -11z m-3248 -10 c12 -15 21 -41 21 -59 0 -50 -33 -85 -81 -85 -78
0 -117 82 -68 144 16 21 29 26 64 26 35 0 48 -5 64 -26z m2949 6 c33 -31 33
-91 -1 -127 -50 -54 -147 -13 -147 62 0 74 94 115 148 65z m-2185 -1 c30 -16
37 -28 37 -65 0 -19 -8 -38 -21 -50 -19 -18 -42 -19 -294 -22 l-273 -3 -21 27
c-27 34 -27 64 0 98 l20 26 265 0 c181 0 272 -4 287 -11z m1564 -11 c33 -30
31 -80 -3 -107 -26 -20 -39 -21 -296 -21 l-269 0 -24 25 c-14 13 -25 36 -25
50 0 14 11 37 25 50 l24 25 272 0 c266 0 273 -1 296 -22z m-4057 -120 c55 -29
81 -64 87 -120 9 -77 -42 -149 -122 -175 l-30 -10 -5 -674 c-3 -371 -6 -675
-8 -676 -1 -1 -9 -9 -18 -17 -25 -26 -79 -20 -103 10 -20 26 -20 37 -21 671
l0 646 31 48 30 48 -25 38 c-50 74 -26 170 54 211 24 12 54 22 65 22 11 0 41
-10 65 -22z m3128 -14 c79 -39 127 -89 164 -170 35 -75 33 -199 -5 -276 -34
-70 -100 -138 -164 -170 -63 -30 -184 -32 -258 -4 -70 27 -146 103 -180 178
-78 173 6 391 175 456 37 14 79 21 126 21 62 1 80 -4 142 -35z m3010 0 c66
-51 80 -136 33 -203 -20 -27 -20 -33 -8 -63 8 -18 21 -39 30 -47 16 -12 17
-70 17 -658 0 -732 3 -702 -82 -703 -71 0 -68 -36 -68 716 l0 672 -35 6 c-69
13 -125 83 -125 156 0 128 138 200 238 124z m-6537 -693 c48 -48 38 -116 -22
-147 -37 -19 -79 -11 -106 19 -82 90 42 214 128 128z m6916 5 c23 -20 28 -32
28 -71 0 -39 -5 -51 -28 -71 -60 -51 -143 -17 -154 63 -5 37 -2 45 25 73 39
38 88 41 129 6z m-4169 -453 c1 -222 -1 -403 -5 -403 -4 0 -58 39 -120 86
l-113 86 0 204 0 204 -408 0 c-446 0 -470 -2 -587 -60 -130 -63 -223 -187
-245 -325 -6 -33 -10 -267 -11 -520 -1 -436 -6 -566 -11 -317 l-3 113 -33 21
c-35 22 -41 9 -9 -24 19 -20 32 -24 21 -6 -4 7 -3 8 4 4 15 -9 15 -33 0 -42
-7 -4 -8 -3 -4 4 9 15 7 15 -45 -3 -24 -9 -54 -13 -66 -10 -20 5 -23 12 -23
60 0 58 -19 78 -21 23 -1 -30 -2 -29 -11 12 -6 25 -11 182 -11 360 0 349 8
415 61 531 99 217 330 382 562 402 19 2 269 3 555 3 l520 -1 3 -402z m2475
379 c284 -79 471 -297 507 -592 10 -82 15 -998 5 -989 -2 3 -5 48 -6 100 -1
110 -8 161 -20 153 -11 -7 -44 25 -35 34 4 3 11 0 16 -8 5 -8 12 -11 16 -8 9
10 -21 38 -40 38 -12 0 -14 -8 -11 -32 5 -29 4 -28 -8 7 -9 29 -15 35 -19 24
-4 -9 -2 -21 4 -27 8 -8 7 -20 -2 -42 -11 -26 -15 -29 -22 -16 -10 18 -1 39
13 31 5 -3 6 1 3 9 -3 9 -10 14 -14 11 -5 -3 -6 5 -3 17 3 17 2 19 -5 9 -7 -9
-12 -10 -16 -2 -4 6 -11 9 -15 7 -4 -3 -5 11 -3 30 2 19 0 34 -6 34 -11 0 -23
-29 -32 -85 -4 -22 -8 123 -8 322 -1 224 -6 382 -13 415 -17 79 -60 156 -121
216 -68 67 -98 87 -178 114 -64 23 -74 23 -500 23 l-435 0 -5 -202 c-3 -111
-7 -203 -10 -206 -20 -18 -220 -167 -225 -167 -3 0 -5 183 -5 406 l0 405 558
-3 c535 -4 560 -5 635 -26z m1671 -322 c58 -22 69 -110 19 -150 -76 -60 -179
13 -143 101 20 48 72 69 124 49z m-6894 -27 c12 -11 16 -58 18 -269 3 -225 1
-258 -13 -274 -32 -35 -105 -31 -119 7 -13 32 -19 485 -7 516 18 45 83 56 121
20z m2301 -425 c129 -95 427 -318 663 -495 283 -213 433 -320 440 -314 11 9
189 143 892 672 l411 309 176 0 177 0 -2 -1547 -3 -1548 -195 0 -195 0 -3 708
c-1 389 -4 707 -7 707 -4 0 -310 -230 -565 -424 -91 -70 -262 -199 -380 -288
-118 -89 -236 -178 -261 -200 -26 -21 -52 -38 -58 -38 -7 0 -94 62 -194 138
-100 76 -319 242 -487 368 -168 127 -368 279 -445 338 l-140 108 -5 -709 -5
-708 -195 0 -195 0 -3 1548 -2 1547 174 0 173 0 234 -172z m4620 13 c66 -67 3
-177 -90 -156 -68 15 -93 98 -45 154 36 43 93 44 135 2z m-6916 -427 c29 -31
32 -71 10 -113 -16 -32 -33 -41 -76 -41 -43 0 -69 17 -85 55 -38 91 85 171
151 99z m6917 -4 c26 -27 29 -35 24 -68 -14 -80 -100 -109 -157 -53 -20 20
-29 39 -29 61 0 46 47 90 95 90 27 0 44 -8 67 -30z m-6192 5 c51 -26 53 -101
5 -123 -25 -12 -445 -18 -433 -7 2 3 25 5 51 6 26 1 45 5 42 7 -9 9 -100 1
-103 -9 -2 -5 -11 -9 -20 -9 -15 0 -15 2 -2 10 8 5 10 10 4 10 -5 0 -15 -5
-20 -10 -19 -19 -64 27 -64 64 0 63 10 65 271 69 129 1 235 3 237 5 2 1 16 -5
32 -13z m5860 -12 c20 -26 21 -36 18 -191 -3 -148 -5 -165 -22 -178 -29 -21
-82 -18 -107 7 -19 19 -20 30 -17 190 3 155 5 172 22 185 33 24 82 18 106 -13z
m-1063 -230 c-2 -16 -4 -3 -4 27 0 30 2 43 4 28 2 -16 2 -40 0 -55z m-4466 28
c5 8 9 9 9 3 0 -5 -6 -18 -12 -27 -12 -15 -13 -14 -14 10 -1 16 1 22 3 14 5
-11 7 -11 14 0z m-4 -66 c0 -8 -4 -12 -9 -9 -5 3 -6 10 -3 15 9 13 12 11 12
-6z m4640 -70 c0 -8 -4 -12 -9 -9 -5 3 -6 10 -3 15 9 13 12 11 12 -6z m-34 -2
c3 -5 -6 -9 -20 -10 -19 -1 -22 1 -12 8 17 11 26 11 32 2z m54 -28 c-7 -17
-27 -21 -27 -4 0 5 5 7 10 4 6 -3 10 2 10 11 0 10 3 15 6 11 4 -3 4 -13 1 -22z
m-4599 -12 c-10 -2 -26 -2 -35 0 -10 3 -2 5 17 5 19 0 27 -2 18 -5z m4429 1
c-3 -3 -12 -4 -19 -1 -8 3 -5 6 6 6 11 1 17 -2 13 -5z m126 -1 c-7 -2 -19 -2
-25 0 -7 3 -2 5 12 5 14 0 19 -2 13 -5z m-4408 -75 c3 -35 5 -279 3 -543 l-3
-480 -112 -3 -113 -3 0 546 0 545 109 0 109 0 7 -62z m4473 -480 l-3 -543
-110 0 -110 0 -3 530 c-1 292 0 536 3 543 3 8 36 12 115 12 l110 0 -2 -542z
m-5630 338 c114 -58 174 -151 180 -278 5 -103 -16 -164 -84 -238 -77 -82 -128
-105 -239 -105 -78 0 -97 4 -147 28 -94 46 -157 131 -181 243 -30 146 83 327
234 373 61 19 178 8 237 -23z m6846 0 c69 -34 148 -119 170 -182 40 -118 10
-259 -74 -343 -75 -75 -127 -96 -235 -96 -78 0 -97 4 -146 28 -66 32 -132 99
-162 165 -17 37 -22 65 -22 132 1 73 5 93 30 143 45 90 121 151 220 178 57 15
160 4 219 -25z m-3429 -2550 c209 -103 256 -367 95 -535 -72 -75 -124 -96
-235 -96 -73 0 -99 4 -136 23 -67 33 -121 83 -154 143 -28 50 -30 62 -30 154
0 115 17 164 80 234 98 108 252 139 380 77z m-2312 -756 c21 -24 27 -40 27
-76 0 -39 -5 -51 -34 -80 -91 -91 -231 21 -171 136 35 67 127 77 178 20z
m4481 30 c41 -15 68 -67 63 -120 -10 -93 -110 -133 -179 -71 -30 27 -33 35
-33 86 0 51 3 59 33 86 34 31 71 37 116 19z m-3564 -30 c47 -47 29 -132 -32
-148 -90 -24 -154 69 -97 142 17 21 29 26 65 26 30 0 50 -6 64 -20z m2647 -2
c32 -30 32 -96 1 -125 -33 -29 -52 -33 -93 -22 -28 8 -40 19 -51 45 -17 40
-11 69 19 102 28 30 92 30 124 0z m-3235 -74 c-6 -35 -12 -29 -12 14 0 23 3
32 9 24 4 -7 6 -24 3 -38z m-108 -63 c-2 -3 -12 3 -22 13 -16 17 -16 18 5 5
12 -7 20 -15 17 -18z"/>
<path d="M2026 7884 c-24 -23 -20 -61 9 -80 32 -21 68 -12 84 22 25 55 -50
102 -93 58z"/>
<path d="M5080 7817 c-46 -11 -98 -62 -112 -108 -21 -73 14 -154 83 -190 102
-52 219 26 219 145 0 105 -91 179 -190 153z"/>
<path d="M8142 7888 c-17 -17 -15 -64 4 -82 33 -34 84 -8 84 43 0 34 -17 51
-50 51 -14 0 -31 -5 -38 -12z"/>
<path d="M2941 6044 c0 -11 3 -14 6 -6 3 7 2 16 -1 19 -3 4 -6 -2 -5 -13z"/>
<path d="M2966 6037 c3 -10 9 -15 12 -12 3 3 0 11 -7 18 -10 9 -11 8 -5 -6z"/>
<path d="M2972 5970 c0 -14 2 -19 5 -12 2 6 2 18 0 25 -3 6 -5 1 -5 -13z"/>
<path d="M2895 5940 c-3 -6 1 -7 9 -4 18 7 21 14 7 14 -6 0 -13 -4 -16 -10z"/>
<path d="M2960 5930 c0 -5 5 -10 11 -10 5 0 7 5 4 10 -3 6 -8 10 -11 10 -2 0
-4 -4 -4 -10z"/>
<path d="M2910 5870 c0 -5 7 -10 16 -10 8 0 12 5 9 10 -3 6 -10 10 -16 10 -5
0 -9 -4 -9 -10z"/>
<path d="M3850 5747 l0 -284 268 -201 c147 -111 431 -326 632 -477 201 -151
370 -275 376 -275 6 0 72 46 145 103 172 132 611 466 897 681 l222 167 0 280
c0 153 -3 279 -8 279 -8 0 -1071 -796 -1184 -886 -37 -30 -72 -54 -78 -54 -6
0 -166 118 -357 263 -190 144 -474 358 -629 474 l-284 213 0 -283z"/>
<path d="M1931 5949 c0 -13 3 -18 6 -10 5 11 7 11 14 0 5 -8 9 -9 9 -3 0 6 -7
17 -15 24 -13 10 -15 9 -14 -11z"/>
<path d="M2238 5918 c6 -6 18 -8 28 -6 14 3 12 5 -9 10 -19 3 -25 2 -19 -4z"/>
<path d="M1960 5910 c-9 -6 -10 -10 -3 -10 6 0 15 5 18 10 8 12 4 12 -15 0z"/>
<path d="M2190 5899 c-19 -3 23 -7 94 -7 71 -1 126 1 124 3 -7 8 -180 11 -218
4z"/>
<path d="M1610 5238 c-91 -63 -92 -192 -1 -254 114 -77 274 40 231 170 -6 19
-29 51 -51 70 -34 32 -45 36 -93 36 -39 0 -62 -6 -86 -22z"/>
<path d="M8460 5234 c-41 -35 -60 -74 -60 -126 0 -115 128 -188 221 -125 97
65 104 167 15 245 -32 28 -44 32 -91 32 -43 0 -59 -5 -85 -26z"/>
<path d="M5051 2694 c-83 -43 -112 -156 -58 -227 39 -51 80 -70 137 -65 81 8
140 72 140 153 0 44 -18 80 -59 119 -38 37 -109 45 -160 20z"/>
</g>
</svg>
